<svg width="50" height="50" viewBox="0 0 50 50" fill="none" xmlns="http://www.w3.org/2000/svg">
<g clip-path="url(#clip0_662_20)">
<path d="M50 20.3875V4.94845L44.6695 10.2534C42.8958 7.86181 40.6999 5.79582 38.169 4.16495C34.1745 1.59124 29.5411 0.230713 24.7692 0.230713C11.1114 0.230713 0 11.3421 0 25C0 38.6579 11.1114 49.7693 24.7693 49.7693C29.5056 49.7693 34.1097 48.4277 38.0843 45.8895C41.9512 43.42 45.0537 39.9377 47.0565 35.8192L43.3823 34.0325C39.8877 41.2192 32.7556 45.6836 24.7694 45.6836C13.3643 45.6836 4.08568 36.405 4.08568 25C4.08568 13.595 13.3643 4.31639 24.7693 4.31639C31.5579 4.31639 37.9033 7.70751 41.7345 13.1744L34.4867 20.3875H50Z" fill="#BCA48D"/>
</g>
<defs>
<clipPath id="clip0_662_20">
<rect width="50" height="50" fill="white"/>
</clipPath>
</defs>
</svg>
